<?xml version="1.0" encoding="UTF-8"?>
<svg width="700pt" height="700pt" version="1.1" viewBox="0 0 700 700" xmlns="http://www.w3.org/2000/svg" xmlns:xlink="http://www.w3.org/1999/xlink">
 <defs>
  <symbol id="u" overflow="visible">
   <path d="m14.656-0.875c-0.76172 0.39844-1.5547 0.69531-2.375 0.89062-0.8125 0.19531-1.6641 0.29688-2.5469 0.29688-2.6562 0-4.7617-0.73828-6.3125-2.2188-1.5547-1.4883-2.3281-3.5039-2.3281-6.0469 0-2.5508 0.77344-4.5664 2.3281-6.0469 1.5508-1.4883 3.6562-2.2344 6.3125-2.2344 0.88281 0 1.7344 0.10156 2.5469 0.29688 0.82031 0.19922 1.6133 0.49609 2.375 0.89062v3.2969c-0.76172-0.51953-1.5117-0.89844-2.25-1.1406-0.74219-0.23828-1.5234-0.35938-2.3438-0.35938-1.4688 0-2.625 0.46875-3.4688 1.4062-0.83594 0.9375-1.25 2.2344-1.25 3.8906 0 1.6484 0.41406 2.9375 1.25 3.875 0.84375 0.9375 2 1.4062 3.4688 1.4062 0.82031 0 1.6016-0.11719 2.3438-0.35938 0.73828-0.23828 1.4883-0.61719 2.25-1.1406z"/>
  </symbol>
  <symbol id="c" overflow="visible">
   <path d="m10.719-8.7031c-0.33594-0.15625-0.66797-0.26953-1-0.34375-0.32422-0.082031-0.65625-0.125-1-0.125-0.98047 0-1.7344 0.32031-2.2656 0.95312-0.53125 0.625-0.79688 1.5273-0.79688 2.7031v5.5156h-3.8125v-11.969h3.8125v1.9688c0.48828-0.78125 1.0508-1.3477 1.6875-1.7031 0.64453-0.36328 1.4102-0.54688 2.2969-0.54688 0.13281 0 0.27344 0.007812 0.42188 0.015625 0.14453 0.011719 0.36328 0.03125 0.65625 0.0625z"/>
  </symbol>
  <symbol id="a" overflow="visible">
   <path d="m13.781-6.0156v1.0938h-8.9375c0.09375 0.89844 0.41406 1.5703 0.96875 2.0156 0.55078 0.44922 1.3281 0.67188 2.3281 0.67188 0.80078 0 1.625-0.11719 2.4688-0.35938 0.84375-0.23828 1.7109-0.59766 2.6094-1.0781v2.9531c-0.90625 0.33594-1.8125 0.58984-2.7188 0.76562s-1.8125 0.26562-2.7188 0.26562c-2.1562 0-3.8398-0.54688-5.0469-1.6406-1.1992-1.1016-1.7969-2.6484-1.7969-4.6406 0-1.9453 0.58594-3.4766 1.7656-4.5938 1.1758-1.125 2.8008-1.6875 4.875-1.6875 1.875 0 3.375 0.57031 4.5 1.7031 1.1328 1.125 1.7031 2.6367 1.7031 4.5312zm-3.9375-1.2656c0-0.72656-0.21484-1.3125-0.64062-1.75-0.41797-0.44531-0.96875-0.67188-1.6562-0.67188-0.74219 0-1.3438 0.21094-1.8125 0.625-0.46094 0.41797-0.74609 1.0156-0.85938 1.7969z"/>
  </symbol>
  <symbol id="i" overflow="visible">
   <path d="m7.2031-5.3906c-0.80469 0-1.4062 0.13672-1.8125 0.40625-0.39844 0.27344-0.59375 0.67188-0.59375 1.2031 0 0.48047 0.16016 0.85938 0.48438 1.1406 0.32031 0.27344 0.77344 0.40625 1.3594 0.40625 0.71875 0 1.3203-0.25391 1.8125-0.76562 0.48828-0.51953 0.73438-1.1719 0.73438-1.9531v-0.4375zm5.8438-1.4375v6.8281h-3.8594v-1.7656c-0.51172 0.71875-1.0898 1.2461-1.7344 1.5781-0.63672 0.33203-1.418 0.5-2.3438 0.5-1.2422 0-2.2461-0.35938-3.0156-1.0781-0.77344-0.72656-1.1562-1.6719-1.1562-2.8281 0-1.3945 0.47656-2.4219 1.4375-3.0781 0.96875-0.65625 2.4883-0.98438 4.5625-0.98438h2.25v-0.29688c0-0.60156-0.24219-1.0469-0.71875-1.3281-0.48047-0.28125-1.2266-0.42188-2.2344-0.42188-0.8125 0-1.5742 0.085937-2.2812 0.25-0.71094 0.15625-1.3672 0.40234-1.9688 0.73438v-2.9219c0.82031-0.19531 1.6445-0.34766 2.4688-0.45312 0.82031-0.10156 1.6484-0.15625 2.4844-0.15625 2.1562 0 3.7109 0.42969 4.6719 1.2812 0.95703 0.84375 1.4375 2.2266 1.4375 4.1406z"/>
  </symbol>
  <symbol id="b" overflow="visible">
   <path d="m6.0156-15.359v3.3906h3.9375v2.7344h-3.9375v5.0781c0 0.55469 0.10938 0.92969 0.32812 1.125 0.21875 0.19922 0.65625 0.29688 1.3125 0.29688h1.9688v2.7344h-3.2812c-1.5117 0-2.5859-0.3125-3.2188-0.9375-0.625-0.63281-0.9375-1.707-0.9375-3.2188v-5.0781h-1.9062v-2.7344h1.9062v-3.3906z"/>
  </symbol>
  <symbol id="h" overflow="visible">
   <path d="m9.9688-10.219v-6.4062h3.8594v16.625h-3.8594v-1.7344c-0.52344 0.71094-1.1016 1.2305-1.7344 1.5625-0.63672 0.32031-1.3711 0.48438-2.2031 0.48438-1.4688 0-2.6797-0.58203-3.625-1.75-0.94922-1.1758-1.4219-2.6875-1.4219-4.5312s0.47266-3.3477 1.4219-4.5156c0.94531-1.1758 2.1562-1.7656 3.625-1.7656 0.83203 0 1.5664 0.16797 2.2031 0.5 0.63281 0.32422 1.2109 0.83594 1.7344 1.5312zm-2.5156 7.75c0.82031 0 1.4453-0.29688 1.875-0.89062 0.42578-0.60156 0.64062-1.4727 0.64062-2.6094 0-1.1445-0.21484-2.0156-0.64062-2.6094-0.42969-0.59375-1.0547-0.89062-1.875-0.89062-0.8125 0-1.4336 0.29688-1.8594 0.89062-0.42969 0.59375-0.64062 1.4648-0.64062 2.6094 0 1.1367 0.21094 2.0078 0.64062 2.6094 0.42578 0.59375 1.0469 0.89062 1.8594 0.89062z"/>
  </symbol>
  <symbol id="g" overflow="visible">
   <path d="m8.2031-2.4688c0.82031 0 1.4453-0.29688 1.875-0.89062 0.42578-0.60156 0.64062-1.4727 0.64062-2.6094 0-1.1445-0.21484-2.0156-0.64062-2.6094-0.42969-0.59375-1.0547-0.89062-1.875-0.89062-0.82422 0-1.4531 0.30469-1.8906 0.90625-0.4375 0.59375-0.65625 1.4609-0.65625 2.5938 0 1.1367 0.21875 2.0078 0.65625 2.6094 0.4375 0.59375 1.0664 0.89062 1.8906 0.89062zm-2.5469-7.75c0.53125-0.69531 1.1133-1.207 1.75-1.5312 0.64453-0.33203 1.3828-0.5 2.2188-0.5 1.4688 0 2.6758 0.58984 3.625 1.7656 0.94531 1.168 1.4219 2.6719 1.4219 4.5156s-0.47656 3.3555-1.4219 4.5312c-0.94922 1.168-2.1562 1.75-3.625 1.75-0.83594 0-1.5742-0.16797-2.2188-0.5-0.63672-0.33203-1.2188-0.84766-1.75-1.5469v1.7344h-3.8125v-16.625h3.8125z"/>
  </symbol>
  <symbol id="f" overflow="visible">
   <path d="m0.26562-11.969h3.8281l3.2188 8.125 2.7344-8.125h3.8125l-5.0312 13.094c-0.5 1.332-1.0898 2.2656-1.7656 2.7969-0.66797 0.53125-1.5547 0.79688-2.6562 0.79688h-2.2188v-2.5h1.2031c0.64453 0 1.1133-0.10547 1.4062-0.3125 0.30078-0.21094 0.53125-0.57812 0.6875-1.1094l0.10938-0.34375z"/>
  </symbol>
  <symbol id="e" overflow="visible">
   <path d="m13.109-15.438v3.375c-0.875-0.39453-1.7305-0.69141-2.5625-0.89062-0.83594-0.19531-1.6211-0.29688-2.3594-0.29688-0.99219 0-1.7188 0.13672-2.1875 0.40625-0.46875 0.27344-0.70312 0.6875-0.70312 1.25 0 0.42969 0.15625 0.76172 0.46875 1 0.32031 0.24219 0.89844 0.44922 1.7344 0.625l1.75 0.34375c1.7695 0.35547 3.0312 0.89844 3.7812 1.625 0.75 0.73047 1.125 1.7617 1.125 3.0938 0 1.7617-0.52734 3.0742-1.5781 3.9375-1.043 0.85547-2.6328 1.2812-4.7656 1.2812-1.0117 0-2.0273-0.10156-3.0469-0.29688-1.0234-0.1875-2.043-0.46875-3.0625-0.84375v-3.4688c1.0195 0.53125 2.0039 0.9375 2.9531 1.2188 0.95703 0.27344 1.875 0.40625 2.75 0.40625 0.90625 0 1.5938-0.14453 2.0625-0.4375 0.47656-0.30078 0.71875-0.73438 0.71875-1.2969 0-0.48828-0.16406-0.86719-0.48438-1.1406-0.32422-0.26953-0.96875-0.51562-1.9375-0.73438l-1.5938-0.35938c-1.5938-0.33203-2.7617-0.875-3.5-1.625-0.74219-0.75-1.1094-1.7578-1.1094-3.0312 0-1.582 0.50781-2.8008 1.5312-3.6562 1.0312-0.85156 2.5078-1.2812 4.4375-1.2812 0.875 0 1.7734 0.070313 2.7031 0.20312 0.92578 0.125 1.8828 0.32422 2.875 0.59375z"/>
  </symbol>
  <symbol id="t" overflow="visible">
   <path d="m8.3906-9.7656c0.65625 0 1.1484-0.14062 1.4844-0.42188 0.33203-0.28906 0.5-0.71094 0.5-1.2656 0-0.55078-0.16797-0.97266-0.5-1.2656-0.33594-0.28906-0.82812-0.4375-1.4844-0.4375h-2.2656v3.3906zm0.14062 6.9688c0.82031 0 1.4414-0.17188 1.8594-0.51562 0.41406-0.35156 0.625-0.88281 0.625-1.5938 0-0.6875-0.21094-1.2031-0.625-1.5469-0.40625-0.34375-1.0273-0.51562-1.8594-0.51562h-2.4062v4.1719zm3.8281-5.7344c0.88281 0.25 1.5664 0.72656 2.0469 1.4219 0.48828 0.6875 0.73438 1.5312 0.73438 2.5312 0 1.543-0.52344 2.6953-1.5625 3.4531-1.043 0.75-2.625 1.125-4.75 1.125h-6.8125v-15.953h6.1719c2.207 0 3.8047 0.33984 4.7969 1.0156 1 0.66797 1.5 1.7344 1.5 3.2031 0 0.78125-0.18359 1.4492-0.54688 2-0.36719 0.54297-0.89062 0.94531-1.5781 1.2031z"/>
  </symbol>
  <symbol id="s" overflow="visible">
   <path d="m0.10938-15.953h14.688v3.1094h-5.2812v12.844h-4.1094v-12.844h-5.2969z"/>
  </symbol>
  <symbol id="r" overflow="visible">
   <path d="m9.7031-16.625v2.5156h-2.1094c-0.54297 0-0.92188 0.10156-1.1406 0.29688-0.21094 0.19922-0.3125 0.53906-0.3125 1.0156v0.82812h3.2656v2.7344h-3.2656v9.2344h-3.8281v-9.2344h-1.8906v-2.7344h1.8906v-0.82812c0-1.3008 0.36328-2.2656 1.0938-2.8906 0.72656-0.625 1.8516-0.9375 3.375-0.9375z"/>
  </symbol>
  <symbol id="d" overflow="visible">
   <path d="m7.5312-9.5156c-0.84375 0-1.4922 0.30859-1.9375 0.92188-0.44922 0.60547-0.67188 1.4805-0.67188 2.625 0 1.1484 0.22266 2.0273 0.67188 2.6406 0.44531 0.60547 1.0938 0.90625 1.9375 0.90625 0.83203 0 1.4688-0.30078 1.9062-0.90625 0.44531-0.61328 0.67188-1.4922 0.67188-2.6406 0-1.1445-0.22656-2.0195-0.67188-2.625-0.4375-0.61328-1.0742-0.92188-1.9062-0.92188zm0-2.7344c2.0508 0 3.6562 0.55859 4.8125 1.6719 1.1641 1.1055 1.75 2.6406 1.75 4.6094s-0.58594 3.5117-1.75 4.625c-1.1562 1.1055-2.7617 1.6562-4.8125 1.6562-2.0625 0-3.6797-0.55078-4.8438-1.6562-1.168-1.1133-1.75-2.6562-1.75-4.625s0.58203-3.5039 1.75-4.6094c1.1641-1.1133 2.7812-1.6719 4.8438-1.6719z"/>
  </symbol>
  <symbol id="q" overflow="visible">
   <path d="m12.922-9.9688c0.48828-0.75 1.0625-1.3164 1.7188-1.7031 0.66406-0.38281 1.3984-0.57812 2.2031-0.57812 1.375 0 2.4219 0.42969 3.1406 1.2812 0.71875 0.84375 1.0781 2.0742 1.0781 3.6875v7.2812h-3.8438v-6.2344c0.007812-0.09375 0.015625-0.1875 0.015625-0.28125v-0.4375c0-0.84375-0.125-1.457-0.375-1.8438-0.25-0.38281-0.65234-0.57812-1.2031-0.57812-0.73047 0-1.293 0.30469-1.6875 0.90625-0.38672 0.59375-0.58984 1.4609-0.60938 2.5938v5.875h-3.8438v-6.2344c0-1.3203-0.11719-2.1758-0.34375-2.5625-0.23047-0.38281-0.63672-0.57812-1.2188-0.57812-0.73047 0-1.2969 0.30469-1.7031 0.90625-0.39844 0.60547-0.59375 1.4648-0.59375 2.5781v5.8906h-3.8438v-11.969h3.8438v1.75c0.46875-0.66406 1.0039-1.1719 1.6094-1.5156 0.61328-0.34375 1.2891-0.51562 2.0312-0.51562 0.82031 0 1.5508 0.19922 2.1875 0.59375 0.63281 0.39844 1.1133 0.96094 1.4375 1.6875z"/>
  </symbol>
  <symbol id="p" overflow="visible">
   <path d="m13.859-7.2812v7.2812h-3.8438v-5.5469c0-1.0508-0.027344-1.7695-0.078125-2.1562-0.042969-0.39453-0.12109-0.6875-0.23438-0.875-0.14844-0.25-0.35156-0.44141-0.60938-0.57812-0.25-0.14453-0.54297-0.21875-0.875-0.21875-0.79297 0-1.418 0.3125-1.875 0.9375-0.46094 0.61719-0.6875 1.4648-0.6875 2.5469v5.8906h-3.8125v-16.625h3.8125v6.4062c0.58203-0.69531 1.1953-1.207 1.8438-1.5312 0.64453-0.33203 1.3594-0.5 2.1406-0.5 1.3828 0 2.4297 0.42969 3.1406 1.2812 0.71875 0.84375 1.0781 2.0742 1.0781 3.6875z"/>
  </symbol>
  <symbol id="o" overflow="visible">
   <path d="m2.0156-15.953h4.5781l5.8125 10.938v-10.938h3.8906v15.953h-4.5938l-5.7969-10.938v10.938h-3.8906z"/>
  </symbol>
  <symbol id="n" overflow="visible">
   <path d="m1.7031-4.6562v-7.3125h3.8438v1.2031c0 0.64844-0.007813 1.4609-0.015625 2.4375v1.9688c0 0.96094 0.023438 1.6523 0.078125 2.0781 0.050781 0.41797 0.13281 0.72656 0.25 0.92188 0.15625 0.25 0.35938 0.44531 0.60938 0.57812 0.25781 0.13672 0.55078 0.20312 0.875 0.20312 0.80078 0 1.4258-0.30469 1.875-0.92188 0.45703-0.61328 0.6875-1.4688 0.6875-2.5625v-5.9062h3.8281v11.969h-3.8281v-1.7344c-0.57422 0.69922-1.1836 1.2148-1.8281 1.5469-0.64844 0.33203-1.3555 0.5-2.125 0.5-1.3867 0-2.4453-0.42188-3.1719-1.2656-0.71875-0.85156-1.0781-2.0859-1.0781-3.7031z"/>
  </symbol>
  <symbol id="m" overflow="visible">
   <path d="m13.859-7.2812v7.2812h-3.8438v-5.5781c0-1.0312-0.027344-1.7383-0.078125-2.125-0.042969-0.39453-0.12109-0.6875-0.23438-0.875-0.14844-0.25-0.35156-0.44141-0.60938-0.57812-0.25-0.14453-0.54297-0.21875-0.875-0.21875-0.79297 0-1.418 0.3125-1.875 0.9375-0.46094 0.61719-0.6875 1.4648-0.6875 2.5469v5.8906h-3.8125v-11.969h3.8125v1.75c0.58203-0.69531 1.1953-1.207 1.8438-1.5312 0.64453-0.33203 1.3594-0.5 2.1406-0.5 1.3828 0 2.4297 0.42969 3.1406 1.2812 0.71875 0.84375 1.0781 2.0742 1.0781 3.6875z"/>
  </symbol>
  <symbol id="l" overflow="visible">
   <path d="m2.0156-15.953h6.8125c2.0312 0 3.5859 0.45312 4.6719 1.3594 1.0938 0.89844 1.6406 2.1797 1.6406 3.8438 0 1.6797-0.54688 2.9688-1.6406 3.875-1.0859 0.89844-2.6406 1.3438-4.6719 1.3438h-2.7031v5.5312h-4.1094zm4.1094 2.9844v4.4531h2.2656c0.80078 0 1.4141-0.19141 1.8438-0.57812 0.4375-0.38281 0.65625-0.9375 0.65625-1.6562 0-0.70703-0.21875-1.2539-0.65625-1.6406-0.42969-0.38281-1.043-0.57812-1.8438-0.57812z"/>
  </symbol>
  <symbol id="k" overflow="visible">
   <path d="m1.8438-11.969h3.8125v11.75c0 1.6016-0.38672 2.8281-1.1562 3.6719-0.76172 0.84375-1.8711 1.2656-3.3281 1.2656h-1.8906v-2.5h0.65625c0.72656 0 1.2266-0.16797 1.5-0.5 0.26953-0.32422 0.40625-0.96875 0.40625-1.9375zm0-4.6562h3.8125v3.125h-3.8125z"/>
  </symbol>
  <symbol id="j" overflow="visible">
   <path d="m11.5-11.594v3.125c-0.52344-0.35156-1.043-0.61328-1.5625-0.78125-0.52344-0.17578-1.0625-0.26562-1.625-0.26562-1.0742 0-1.9062 0.3125-2.5 0.9375s-0.89062 1.4961-0.89062 2.6094c0 1.1172 0.29688 1.9844 0.89062 2.6094s1.4258 0.9375 2.5 0.9375c0.59375 0 1.1562-0.085937 1.6875-0.26562 0.53906-0.17578 1.0391-0.44141 1.5-0.79688v3.125c-0.59375 0.23047-1.1992 0.39453-1.8125 0.5-0.61719 0.11328-1.2344 0.17188-1.8594 0.17188-2.1562 0-3.8438-0.55078-5.0625-1.6562-1.2188-1.1133-1.8281-2.6562-1.8281-4.625s0.60938-3.5039 1.8281-4.6094c1.2188-1.1133 2.9062-1.6719 5.0625-1.6719 0.625 0 1.2383 0.058594 1.8438 0.17188 0.61328 0.10547 1.2227 0.26562 1.8281 0.48438z"/>
  </symbol>
 </defs>
 <g>
  <path d="m172.85 400.26c-4.8281 0-8.75-3.9219-8.75-8.75v-152.66c0-4.8281 3.9219-8.75 8.75-8.75s8.75 3.9219 8.75 8.75v152.66c0 4.832-3.9219 8.75-8.75 8.75z"/>
  <path d="m612.5 470.41h-56.305c-4.8281 0-8.75-3.9219-8.75-8.75s3.9219-8.75 8.75-8.75h47.555v-350.82h-365.31c-4.8281 0-8.75-3.9219-8.75-8.75 0-4.8281 3.9219-8.75 8.75-8.75h374.06c4.8281 0 8.75 3.9219 8.75 8.75v368.32c0 4.8281-3.9219 8.7461-8.75 8.7461z"/>
  <path d="m611.27 179.9h-347.61c-4.8281 0-8.75-3.9219-8.75-8.75 0-4.8281 3.9219-8.75 8.75-8.75h347.61c4.8281 0 8.75 3.9219 8.75 8.75 0 4.832-3.918 8.75-8.75 8.75z"/>
  <path d="m477.16 139.91h-3.2148c-4.8281 0-8.75-3.9219-8.75-8.75v-3.3867c0-4.8281 3.9219-8.75 8.75-8.75h3.2148c4.8281 0 8.75 3.9219 8.75 8.75v3.3867c0 4.832-3.9219 8.75-8.75 8.75z"/>
  <path d="m523.46 139.91h-3.2148c-4.8281 0-8.75-3.9219-8.75-8.75v-3.3867c0-4.8281 3.9219-8.75 8.75-8.75h3.2148c4.8281 0 8.75 3.9219 8.75 8.75v3.3867c0 4.832-3.918 8.75-8.75 8.75z"/>
  <path d="m569.75 139.91h-3.2188c-4.8281 0-8.75-3.9219-8.75-8.75v-3.3867c0-4.8281 3.9219-8.75 8.75-8.75h3.2188c4.8281 0 8.75 3.9219 8.75 8.75v3.3867c0 4.832-3.918 8.75-8.75 8.75z"/>
  <path d="m310.9 255.69c-2.3984 0-4.6953-0.98828-6.3438-2.7266l-12.625-13.297c-3.3281-3.5039-3.1836-9.0391 0.32031-12.367s9.0391-3.1875 12.371 0.32031l6.2812 6.6133 17.785-18.719c3.3242-3.5039 8.8633-3.6445 12.371-0.32031 3.5039 3.3281 3.6445 8.8633 0.32031 12.367l-24.129 25.406c-1.6602 1.7383-3.957 2.7227-6.3516 2.7227z"/>
  <path d="m310.9 325.09c-2.3984 0-4.6953-0.98828-6.3438-2.7266l-12.625-13.297c-3.3281-3.5039-3.1836-9.0391 0.32031-12.367s9.0391-3.1875 12.371 0.32031l6.2812 6.6133 17.785-18.719c3.3242-3.5039 8.8633-3.6445 12.371-0.32031 3.5039 3.3281 3.6445 8.8633 0.32031 12.367l-24.129 25.406c-1.6602 1.7344-3.957 2.7227-6.3516 2.7227z"/>
  <path d="m507.44 242.99h-125.27c-4.8281 0-8.75-3.9219-8.75-8.75s3.9219-8.75 8.75-8.75h125.26c4.8281 0 8.75 3.9219 8.75 8.75s-3.9141 8.75-8.7461 8.75z"/>
  <path d="m507.44 316.94h-125.27c-4.8281 0-8.75-3.9219-8.75-8.75s3.9219-8.75 8.75-8.75h125.26c4.8281 0 8.75 3.9219 8.75 8.75 0 4.832-3.9141 8.75-8.7461 8.75z"/>
  <path d="m350.95 516.25c-0.44531 0-0.89062-0.035156-1.3359-0.10156-7.5391-1.1641-14.027-2.6016-20.41-4.5234-7.0508-2.2969-13.684-5.0039-19.402-7.8906l-88.859-31.535-77.52 27.133c-2.7109 0.94922-5.7227 0.50781-8.0508-1.1914-2.3242-1.6992-3.668-4.4258-3.5859-7.3008l2.4023-89.613c0.10156-3.6836 2.5-6.9141 6-8.0703 42.922-14.223 86.008-28.609 129.1-42.992l3.9219-1.3125c1.6406-0.54687 3.4141-0.59766 5.0938-0.13672 44.996 12.391 89.832 24.602 134.83 36.82 18 3.9492 31.141 20.328 29.504 37.176-0.13281 1.5039-0.37109 2.9453-0.70312 4.3164 9.5195-1.9414 19.035-3.8867 28.551-5.8242 19.375-3.9453 38.75-7.8984 58.125-11.891 17.824-4.4961 36.566 6.9414 41.391 25.555 4.6055 18.09-5.1445 37.078-22.199 43.27-0.42578 0.15234-0.86328 0.27734-1.3047 0.36328-64.688 12.648-129.2 25.125-193.88 37.598-0.55469 0.10156-1.1094 0.15234-1.6641 0.15234zm-129.99-62.078c0.98828 0 1.9805 0.16797 2.9258 0.50391l92.301 32.75c0.36328 0.125 0.71875 0.28125 1.0625 0.45312 5.0312 2.5781 10.977 5.0156 17.195 7.0391 4.9961 1.5039 10.277 2.6992 16.359 3.6914 63.918-12.324 127.67-24.656 191.59-37.152 8.3398-3.375 13.004-13.016 10.652-22.242-2.4531-9.4648-11.488-15.117-20.551-12.855-19.754 4.082-39.141 8.0312-58.527 11.98-16.238 3.3125-32.48 6.6211-48.719 9.9531-1.1406 0.5-2.3984 0.73828-3.543 0.72656-1.9062 0.39453-3.8164 0.78906-5.7227 1.1797-0.84766 0.17578-1.7109 0.22656-2.5781 0.14062l-38.574-3.6055c-0.3125-0.03125-0.62109-0.074219-0.92578-0.13672l-66.812-13.559c-4.7383-0.96094-7.7969-5.5781-6.832-10.316 0.95703-4.7305 5.5703-7.8008 10.316-6.832l66.352 13.469 36.809 3.4375c1.625-0.33203 3.2461-0.66406 4.8711-1 2.1953-1.7266 6.1523-5.5156 6.5977-10.691 0.69141-7.1172-5.332-16.184-16.254-18.59-44.566-12.09-88.582-24.074-132.73-36.227l-1.3945 0.46484c-41.152 13.742-82.297 27.48-123.3 41.078l-1.8984 70.793 68.453-23.961c0.93359-0.32812 1.9102-0.49219 2.8828-0.49219z"/>
  <path d="m203.63 265.4c-4.5078 0-8.9297-1.3398-12.801-3.9219-4.6953-3.1328-8.0898-7.7305-9.7461-13.133-7.8047-0.21484-15.496-1.5-22.996-3.8398-3.4297 4.3789-8.1992 7.3359-13.645 8.4258-6.2344 1.2266-12.543-0.11328-17.797-3.8125-9.5312-6.707-12.863-19.555-8.3242-30.055-5.8594-6.4062-10.777-13.57-14.684-21.41-4.957 0.25781-9.8008-1.0781-14.016-3.8906-5.4297-3.6094-9.1211-9.1914-10.398-15.703-2.2812-11.617 3.9258-22.961 14.191-27.172 0.26953-8.8008 1.7344-17.418 4.3633-25.75-8.9297-7.8125-11.086-21.551-4.6211-31.797 3.4688-5.4961 8.8242-9.2031 15.082-10.461 5.1094-1.0117 10.285-0.28516 14.883 2.0547 5.7812-5.3516 12.164-9.832 19.094-13.402-1.918-12.699 6.1875-24.824 18.496-27.328 6.0234-1.2305 12.191-0.003906 17.379 3.4531 5.0977 3.3945 8.6641 8.5273 10.137 14.539 7.2305 0.55469 14.332 2.0273 21.227 4.3984 3.4648-5.4453 8.7969-9.1367 15.027-10.383 6.2227-1.2383 12.543 0.10938 17.797 3.8125 10.551 7.4258 13.512 22.387 6.5898 33.348l-0.097657 0.14844c4.8594 5.6719 9.0078 11.875 12.406 18.555l0.74219-0.15234c6.0195-1.2383 12.191-0.003906 17.379 3.4531 5.4258 3.6133 9.1172 9.1953 10.395 15.711 2.5508 12.984-5.5039 25.629-17.984 28.355-0.24219 7.5938-1.3789 15.09-3.3984 22.406l0.86719 0.61328c10.551 7.4297 13.504 22.387 6.5898 33.348-3.4688 5.4961-8.8242 9.2031-15.082 10.461-5.7148 1.1289-11.516 0.085937-16.492-2.957-5.3086 5.2539-11.203 9.7617-17.617 13.477 2.4062 13.004-5.7812 25.598-18.359 28.156-1.5312 0.29688-3.0625 0.45312-4.5859 0.45312zm-6.875-27.355 0.85156 4.3516c0.37109 1.9062 1.4141 3.5117 2.9258 4.5195 0.90234 0.59766 2.3438 1.2422 4.1875 0.86719 3.2734-0.66406 5.3477-4.207 4.625-7.9023l-0.88672-4.5117c-0.050781-0.26953-0.11719-0.51562-0.1875-0.75781-1.2344-4.125 0.72656-8.5391 4.6172-10.395 8.9922-4.293 16.871-10.398 23.418-18.152 1.5195-1.7969 3.6953-2.9102 6.0469-3.0859 2.3789-0.125 4.6641 0.61328 6.4297 2.1719 0.15625 0.13672 0.32031 0.26953 0.48828 0.39062l3.6836 2.5938c1.2969 0.91406 2.8281 1.2539 4.293 0.96094 1.5078-0.29688 2.8281-1.2383 3.7109-2.6367 1.9844-3.1484 1.1328-7.5859-1.8633-9.6953l-3.6562-2.5781c-0.33203-0.23438-0.68359-0.43359-1.043-0.58984-4.1875-1.8555-6.2344-6.625-4.6953-10.938 3.4609-9.6953 4.957-19.848 4.457-30.176-0.11328-2.3477 0.72656-4.6523 2.3281-6.375 1.6016-1.7266 3.8281-2.7344 6.1836-2.7969 0.31641-0.007812 0.62891-0.027344 0.94531-0.09375l4.2812-0.87109c3.2734-0.66406 5.3477-4.2148 4.625-7.9062-0.375-1.9023-1.418-3.5078-2.9297-4.5195-0.90234-0.59766-2.3633-1.2383-4.1797-0.86328h-0.003906l-4.2891 0.87109c-0.37109 0.078124-0.76563 0.21094-1.1641 0.39453-2.1641 0.99219-4.6523 1.0703-6.8594 0.19531-2.2188-0.86719-3.9883-2.6094-4.8945-4.8125-3.9062-9.5-9.543-17.953-16.738-25.148-3.2539-3.25-3.4336-8.4688-0.41016-11.938 0.21875-0.25391 0.43359-0.51172 0.61719-0.80469l2.3984-3.8008c1.9844-3.1484 1.1328-7.5859-1.8594-9.6953-1.3008-0.91406-2.8125-1.2539-4.2969-0.96094-1.5039 0.29688-2.8281 1.2344-3.707 2.6367l-2.4102 3.8164c-0.19531 0.3125-0.36328 0.66016-0.51172 1.0156-0.91016 2.1797-2.6562 3.8984-4.8477 4.7695-2.1914 0.86719-4.6445 0.81641-6.7969-0.14844-9.1094-4.0742-18.73-6.0039-28.605-6.0117-4.3594 0.16016-8.207-3.2539-8.7578-7.6641l-0.070313-0.51953-0.88672-4.5195c-0.375-1.9062-1.418-3.5117-2.9297-4.5234-0.90234-0.59766-2.3633-1.2383-4.1797-0.86328-3.2773 0.66406-5.3516 4.207-4.6289 7.9023l1.0117 4.9844c1.1523 4.25-1.0234 8.7227-5.0898 10.406-9.4062 3.8984-17.734 9.7578-24.754 17.422-2.9688 3.2461-7.8867 3.7812-11.484 1.2461l-3.2852-2.3086c-1.3047-0.91406-2.8281-1.2539-4.2969-0.96094-1.5078 0.29688-2.8281 1.2383-3.7109 2.6367-1.9844 3.1484-1.1328 7.5859 1.8633 9.6953l3.4141 2.4023c3.3086 2.3281 4.5898 6.6211 3.1016 10.379-4.0391 10.195-5.8555 20.996-5.3945 32.105 0.17578 4.2891-2.793 8.082-7 8.9336l-2.918 0.59375c-3.2734 0.66406-5.3477 4.2148-4.625 7.9062 0.37109 1.9023 1.4141 3.5039 2.9258 4.5156 0.90234 0.60547 2.3633 1.2344 4.1836 0.86719l3.5625-0.72656c4.1094-0.83984 8.2383 1.3594 9.8398 5.2422 4.2188 10.246 10.379 19.234 18.305 26.703 3.0469 2.8711 3.6328 7.5 1.3945 11.035l-1.7539 2.7812c-1.9922 3.1484-1.1328 7.5859 1.8633 9.6953 1.2969 0.91406 2.8164 1.2539 4.293 0.96094 1.5078-0.29688 2.8281-1.2383 3.7109-2.6367l2.3242-3.6836c0.074218-0.11719 0.14844-0.24219 0.22266-0.35156 2.3008-3.457 6.7148-4.8281 10.566-3.2539 9.5742 3.875 19.59 5.5352 29.762 4.9102 4.3477-0.27734 8.1758 2.668 9.0859 6.8984 0.007813 0.12891 0.035157 0.26562 0.058594 0.39844zm66.91-117.55h0.042969z"/>
  <path d="m184.37 203.12c-9.2344 0-18.281-2.7266-26.168-7.9844-10.789-7.1914-18.121-18.227-20.641-31.074-5.1445-26.215 11.672-51.816 37.492-57.07 12.406-2.5312 25.078-0.039063 35.66 7.0156 10.789 7.1953 18.121 18.23 20.645 31.078 5.1484 26.215-11.672 51.816-37.492 57.07-3.1602 0.64062-6.3438 0.96484-9.4961 0.96484zm0.14453-79.59c-1.9844 0-3.9805 0.20312-5.9688 0.60938-16.434 3.3477-27.117 19.738-23.816 36.547 1.6172 8.2383 6.3008 15.305 13.176 19.891 6.6719 4.4531 14.652 6.0273 22.465 4.4375 16.434-3.3477 27.117-19.738 23.812-36.547-1.6172-8.2422-6.3008-15.305-13.184-19.895-4.9648-3.3164-10.668-5.043-16.484-5.043z"/>
  <use x="70" y="625.625" xlink:href="#u"/>
  <use x="86.054688" y="625.625" xlink:href="#c"/>
  <use x="96.839844" y="625.625" xlink:href="#a"/>
  <use x="111.679687" y="625.625" xlink:href="#i"/>
  <use x="126.4375" y="625.625" xlink:href="#b"/>
  <use x="136.894531" y="625.625" xlink:href="#a"/>
  <use x="151.730469" y="625.625" xlink:href="#h"/>
  <use x="175.007812" y="625.625" xlink:href="#g"/>
  <use x="190.664062" y="625.625" xlink:href="#f"/>
  <use x="212.539062" y="625.625" xlink:href="#e"/>
  <use x="228.292969" y="625.625" xlink:href="#t"/>
  <use x="244.96875" y="625.625" xlink:href="#s"/>
  <use x="259.890625" y="625.625" xlink:href="#e"/>
  <use x="70" y="647.5" xlink:href="#r"/>
  <use x="79.515625" y="647.5" xlink:href="#c"/>
  <use x="90.304688" y="647.5" xlink:href="#d"/>
  <use x="105.332031" y="647.5" xlink:href="#q"/>
  <use x="135.742188" y="647.5" xlink:href="#b"/>
  <use x="146.199219" y="647.5" xlink:href="#p"/>
  <use x="161.773438" y="647.5" xlink:href="#a"/>
  <use x="184.222656" y="647.5" xlink:href="#o"/>
  <use x="202.53125" y="647.5" xlink:href="#d"/>
  <use x="217.558594" y="647.5" xlink:href="#n"/>
  <use x="233.132812" y="647.5" xlink:href="#m"/>
  <use x="256.320312" y="647.5" xlink:href="#l"/>
  <use x="272.355469" y="647.5" xlink:href="#c"/>
  <use x="283.140625" y="647.5" xlink:href="#d"/>
  <use x="298.171875" y="647.5" xlink:href="#k"/>
  <use x="305.667969" y="647.5" xlink:href="#a"/>
  <use x="320.503906" y="647.5" xlink:href="#j"/>
  <use x="333.472656" y="647.5" xlink:href="#b"/>
 </g>
</svg>
